<svg xmlns="http://www.w3.org/2000/svg" viewBox="0 0 900 620" role="img" aria-labelledby="title desc">
  <title id="title">Ilustracion de talleres tecnicos</title>
  <desc id="desc">Herramientas y areas tecnicas de electricidad, estructuras metalicas y corte y confeccion.</desc>
  <defs>
    <linearGradient id="bg" x1="0" x2="1" y1="0" y2="1">
      <stop stop-color="#082461"/>
      <stop offset="1" stop-color="#1d5cc4"/>
    </linearGradient>
  </defs>
  <rect width="900" height="620" rx="38" fill="url(#bg)"/>
  <path d="M0 455 C160 375 252 496 410 414 C566 333 702 359 900 250 V620 H0 Z" fill="#ffffff" opacity=".09"/>
  <g transform="translate(92 94)">
    <rect width="230" height="168" rx="18" fill="#ffffff"/>
    <rect x="30" y="30" width="170" height="18" rx="9" fill="#f47b20"/>
    <path d="M54 96 H176 M115 60 V138" stroke="#0a2a6e" stroke-width="18" stroke-linecap="round"/>
    <circle cx="115" cy="96" r="28" fill="#e8f0fb"/>
  </g>
  <g transform="translate(334 210)">
    <rect width="230" height="168" rx="18" fill="#ffffff"/>
    <path d="M52 126 L116 38 L178 126 Z" fill="#f47b20"/>
    <path d="M116 52 V116 M86 116 H146" stroke="#0a2a6e" stroke-width="12" stroke-linecap="round"/>
  </g>
  <g transform="translate(578 94)">
    <rect width="230" height="168" rx="18" fill="#ffffff"/>
    <path d="M70 118 C98 74 130 72 164 118" fill="none" stroke="#0a2a6e" stroke-width="16" stroke-linecap="round"/>
    <circle cx="68" cy="122" r="26" fill="#f47b20"/>
    <circle cx="166" cy="122" r="26" fill="#f47b20"/>
    <path d="M60 48 H178 M78 76 H160" stroke="#e8f0fb" stroke-width="16" stroke-linecap="round"/>
  </g>
  <g transform="translate(160 430)" fill="#fff">
    <rect width="580" height="34" rx="17" opacity=".9"/>
    <rect x="80" y="58" width="420" height="22" rx="11" opacity=".45"/>
  </g>
</svg>
